# xmcd
#
# Track frame offsets: 
#        150
#        15680
#        30285
#        44670
#        63166
#        80671
#        94132
#        112767
#        130549
#        149058
#        172709
#        190273
#
# Disc length: 2765 seconds
#
# Revision: 0
# Processed by: cddbd v1.5.2PL0 Copyright (c) Steve Scherf et al.
# Submitted via: ExactAudioCopyFreeDBPlugin 1.0
#
DISCID=940acb0c
DTITLE=Sheila Marshall - What If I Was
DYEAR=2009
DGENRE=Country
TTITLE0=I Ain't Yo Baby
TTITLE1=What If I Was
TTITLE2=What Will You Say About Me
TTITLE3=Zip Zero
TTITLE4=Even If It Hurts
TTITLE5=Nothin's Been Right
TTITLE6=Brand New Day
TTITLE7=Livin' On Love
TTITLE8=Believe
TTITLE9=Angel From Montgmery
TTITLE10=Going Down
TTITLE11=The Big Revival
EXTD=
EXTT0=
EXTT1=
EXTT2=
EXTT3=
EXTT4=
EXTT5=
EXTT6=
EXTT7=
EXTT8=
EXTT9=
EXTT10=
EXTT11=
PLAYORDER=
